<svg width="512" height="512" viewBox="0 0 512 512" fill="none" xmlns="http://www.w3.org/2000/svg">
<mask id="path-1-inside-1_236_10" fill="white">
<path fill-rule="evenodd" clip-rule="evenodd" d="M162.301 69.9353C153.727 69.9353 145.804 74.5097 141.517 81.9353L47.9446 244.007C43.6575 251.432 43.6574 260.581 47.9446 268.007L141.517 430.078C145.804 437.504 153.727 442.078 162.301 442.078H349.445C358.02 442.078 365.943 437.504 370.23 430.078L463.802 268.007C468.089 260.581 468.089 251.432 463.802 244.007L370.23 81.9353C365.943 74.5097 358.02 69.9353 349.445 69.9353H162.301ZM254.478 348.088C306.104 348.088 347.955 306.237 347.955 254.611C347.955 202.986 306.104 161.135 254.478 161.135C202.853 161.135 161.002 202.986 161.002 254.611C161.002 306.237 202.853 348.088 254.478 348.088Z"/>
</mask>
<path fill-rule="evenodd" clip-rule="evenodd" d="M162.301 69.9353C153.727 69.9353 145.804 74.5097 141.517 81.9353L47.9446 244.007C43.6575 251.432 43.6574 260.581 47.9446 268.007L141.517 430.078C145.804 437.504 153.727 442.078 162.301 442.078H349.445C358.02 442.078 365.943 437.504 370.23 430.078L463.802 268.007C468.089 260.581 468.089 251.432 463.802 244.007L370.23 81.9353C365.943 74.5097 358.02 69.9353 349.445 69.9353H162.301ZM254.478 348.088C306.104 348.088 347.955 306.237 347.955 254.611C347.955 202.986 306.104 161.135 254.478 161.135C202.853 161.135 161.002 202.986 161.002 254.611C161.002 306.237 202.853 348.088 254.478 348.088Z" fill="url(#paint0_linear_236_10)"/>
<path d="M370.23 81.9353L369.364 82.4353L370.23 81.9353ZM463.802 268.007L462.936 267.507L463.802 268.007ZM463.802 244.007L462.936 244.507L463.802 244.007ZM370.23 430.078L371.096 430.578L370.23 430.078ZM141.517 430.078L142.383 429.578L141.517 430.078ZM141.517 81.9353L140.651 81.4353L141.517 81.9353ZM47.9446 268.007L47.0786 268.507L47.9446 268.007ZM48.8107 244.507L142.383 82.4353L140.651 81.4353L47.0786 243.507L48.8107 244.507ZM142.383 429.578L48.8107 267.507L47.0786 268.507L140.651 430.578L142.383 429.578ZM349.445 441.078H162.301V443.078H349.445V441.078ZM462.936 267.507L369.364 429.578L371.096 430.578L464.668 268.507L462.936 267.507ZM369.364 82.4353L462.936 244.507L464.668 243.507L371.096 81.4353L369.364 82.4353ZM162.301 70.9353H349.445V68.9353H162.301V70.9353ZM346.955 254.611C346.955 305.685 305.552 347.088 254.478 347.088V349.088C306.656 349.088 348.955 306.789 348.955 254.611H346.955ZM254.478 162.135C305.552 162.135 346.955 203.538 346.955 254.611H348.955C348.955 202.433 306.656 160.135 254.478 160.135V162.135ZM162.002 254.611C162.002 203.538 203.405 162.135 254.478 162.135V160.135C202.3 160.135 160.002 202.433 160.002 254.611H162.002ZM254.478 347.088C203.405 347.088 162.002 305.685 162.002 254.611H160.002C160.002 306.789 202.3 349.088 254.478 349.088V347.088ZM371.096 81.4353C366.63 73.7003 358.377 68.9353 349.445 68.9353V70.9353C357.662 70.9353 365.255 75.3191 369.364 82.4353L371.096 81.4353ZM464.668 268.507C469.134 260.772 469.134 251.242 464.668 243.507L462.936 244.507C467.044 251.623 467.044 260.391 462.936 267.507L464.668 268.507ZM349.445 443.078C358.377 443.078 366.63 438.313 371.096 430.578L369.364 429.578C365.255 436.694 357.662 441.078 349.445 441.078V443.078ZM140.651 430.578C145.116 438.313 153.37 443.078 162.301 443.078V441.078C154.084 441.078 146.491 436.694 142.383 429.578L140.651 430.578ZM142.383 82.4353C146.491 75.3191 154.084 70.9353 162.301 70.9353V68.9353C153.37 68.9353 145.116 73.7003 140.651 81.4353L142.383 82.4353ZM47.0786 243.507C42.6128 251.242 42.6128 260.772 47.0786 268.507L48.8107 267.507C44.7021 260.39 44.7021 251.623 48.8107 244.507L47.0786 243.507Z" fill="#2970FF" mask="url(#path-1-inside-1_236_10)"/>
<defs>
<linearGradient id="paint0_linear_236_10" x1="255.873" y1="69.9353" x2="255.873" y2="442.078" gradientUnits="userSpaceOnUse">
<stop stop-color="#2970FF"/>
<stop offset="1" stop-color="#0041C5"/>
</linearGradient>
</defs>
</svg>
